<?xml version="1.0" encoding="UTF-8"?>
<!DOCTYPE svg PUBLIC "-//W3C//DTD SVG 1.1//EN" "http://www.w3.org/Graphics/SVG/1.1/DTD/svg11.dtd">
<svg xmlns="http://www.w3.org/2000/svg" version="1.1" width="512px" height="512px" style="shape-rendering:geometricPrecision; text-rendering:geometricPrecision; image-rendering:optimizeQuality; fill-rule:evenodd; clip-rule:evenodd" xmlns:xlink="http://www.w3.org/1999/xlink">
<g><path style="opacity:0.929" fill="#000000" d="M 80.5,-0.5 C 94.1667,-0.5 107.833,-0.5 121.5,-0.5C 156.532,8.36033 181.366,29.3603 196,62.5C 236.833,50.5294 277.666,50.5294 318.5,62.5C 332.052,28.9444 356.385,7.94437 391.5,-0.5C 405.167,-0.5 418.833,-0.5 432.5,-0.5C 474.253,10.9196 500.586,37.5863 511.5,79.5C 511.5,92.5 511.5,105.5 511.5,118.5C 503.066,153.343 482.399,178.01 449.5,192.5C 449.167,193.167 448.833,193.833 448.5,194.5C 460.5,234.5 460.5,274.5 448.5,314.5C 463.762,321.901 477.262,331.901 489,344.5C 500.005,358.175 507.505,373.508 511.5,390.5C 511.5,403.5 511.5,416.5 511.5,429.5C 503.453,464.72 482.787,489.553 449.5,504C 404.556,518.973 366.056,509.14 334,474.5C 327.014,466.196 321.847,456.863 318.5,446.5C 277.833,458.452 237.166,458.452 196.5,446.5C 170.664,497.916 129.331,518.083 72.5,507C 56.5711,502.289 42.7378,494.123 31,482.5C 28.9449,473.556 32.4449,469.723 41.5,471C 69.1119,495.324 100.112,500.991 134.5,488C 173.178,468.275 189.678,436.775 184,393.5C 176.387,361.22 156.887,339.72 125.5,329C 79.0989,318.788 44.9323,334.621 23,376.5C 14.0599,399.654 14.3933,422.654 24,445.5C 26.4347,452.571 24.1014,456.904 17,458.5C 14.1128,458.097 11.7795,456.764 10,454.5C -9.72823,405.249 0.43844,363.416 40.5,329C 48.2327,323.803 56.2327,319.136 64.5,315C 52.5,274.667 52.5,234.333 64.5,194C 18.221,172.298 -2.94563,135.798 1,84.5C 9.81956,39.4623 36.3196,11.1289 80.5,-0.5 Z M 99.5,13.5 C 146.871,17.0405 175.371,42.0405 185,88.5C 186.798,103.379 184.798,117.712 179,131.5C 175.099,140.039 170.432,148.039 165,155.5C 164.498,163.653 168.331,166.82 176.5,165C 195.84,142.838 204.007,117.005 201,87.5C 200.73,84.7759 200.23,82.1092 199.5,79.5C 199.709,78.914 200.043,78.414 200.5,78C 238.36,66.362 276.026,66.6954 313.5,79C 306.25,125.825 322.583,161.825 362.5,187C 384.741,198.436 408.074,202.269 432.5,198.5C 444.5,235.831 444.5,273.165 432.5,310.5C 385.606,304.032 349.44,320.699 324,360.5C 312.104,382.443 308.604,405.61 313.5,430C 275.9,442.473 238.233,442.64 200.5,430.5C 206.843,382.672 189.51,346.172 148.5,321C 126.648,310.308 103.814,306.808 80,310.5C 68.6667,273.167 68.6667,235.833 80,198.5C 104.61,202.232 128.11,198.399 150.5,187C 156.707,179.667 155.207,174.5 146,171.5C 104.819,192.192 68.152,186.192 36,153.5C 15.6014,127.492 10.9347,98.825 22,67.5C 37.1008,34.0376 62.9342,16.0376 99.5,13.5 Z M 410.5,13.5 C 454.683,16.3333 482.85,38.9999 495,81.5C 501.072,124.19 485.239,155.69 447.5,176C 406.704,191.343 372.204,182.51 344,149.5C 323.915,119.216 322.248,87.8832 339,55.5C 355.82,29.5086 379.653,15.5086 410.5,13.5 Z M 115.5,68.5 C 121.522,68.3526 126.356,70.686 130,75.5C 132.395,104.576 119.895,123.743 92.5,133C 88.2028,134.092 83.8695,134.425 79.5,134C 87.8326,130.61 89.4993,125.276 84.5,118C 67.941,111.369 60.1077,99.2021 61,81.5C 72.8648,91.0095 86.3648,94.8428 101.5,93C 103,92.1667 104.167,91 105,89.5C 103.52,79.659 107.02,72.659 115.5,68.5 Z M 202.5,225.5 C 211.5,225.5 220.5,225.5 229.5,225.5C 229.5,238.5 229.5,251.5 229.5,264.5C 220.5,264.5 211.5,264.5 202.5,264.5C 202.5,251.5 202.5,238.5 202.5,225.5 Z M 401.5,325.5 C 447.955,323.817 478.788,344.817 494,388.5C 502.298,433.735 486.132,466.901 445.5,488C 401.414,503.194 365.914,491.694 339,453.5C 319.03,413.365 324.863,377.532 356.5,346C 369.833,335.331 384.833,328.497 401.5,325.5 Z M 377.5,372.5 C 400.502,372.333 423.502,372.5 446.5,373C 447.333,373.833 448.167,374.667 449,375.5C 449.667,398.5 449.667,421.5 449,444.5C 448.692,445.308 448.192,445.975 447.5,446.5C 424.21,447.656 400.876,447.823 377.5,447C 376.692,446.692 376.025,446.192 375.5,445.5C 374.344,422.21 374.177,398.876 375,375.5C 376.045,374.627 376.878,373.627 377.5,372.5 Z M 88.5,388.5 C 100.139,395.322 111.806,402.155 123.5,409C 112.248,416.211 100.748,423.044 89,429.5C 88.5001,415.837 88.3334,402.171 88.5,388.5 Z M 408.5,403.5 C 414.295,402.137 417.961,404.304 419.5,410C 414.8,419.735 409.8,419.902 404.5,410.5C 405.094,407.692 406.427,405.359 408.5,403.5 Z"/></g>
<g><path style="opacity:0.928" fill="#000000" d="M 419.5,40.5 C 426.175,40.3337 432.842,40.5004 439.5,41C 442.366,42.3929 443.699,44.7262 443.5,48C 443.592,50.8139 442.592,53.1473 440.5,55C 434.581,56.1956 428.581,56.8622 422.5,57C 418.359,58.4741 415.526,61.3074 414,65.5C 413.5,73.4931 413.334,81.4931 413.5,89.5C 418.511,89.3341 423.511,89.5007 428.5,90C 433.343,94.3796 433.677,99.0462 429.5,104C 424.264,105.339 418.93,105.839 413.5,105.5C 413.667,121.17 413.5,136.837 413,152.5C 409.987,157.535 405.82,158.702 400.5,156C 399.299,155.097 398.465,153.931 398,152.5C 397.5,136.837 397.333,121.17 397.5,105.5C 392.401,105.825 387.401,105.325 382.5,104C 378.221,98.967 378.554,94.3003 383.5,90C 388.155,89.5008 392.821,89.3342 397.5,89.5C 397.334,80.8269 397.5,72.1603 398,63.5C 400.918,51.7517 408.085,44.085 419.5,40.5 Z"/></g>
<g><path style="opacity:0.931" fill="#000000" d="M 113.5,52.5 C 121.543,52.0101 128.876,54.0101 135.5,58.5C 139.226,55.9702 143.226,53.9702 147.5,52.5C 155.453,54.7282 157.62,59.7282 154,67.5C 152.185,71.7958 149.852,75.7958 147,79.5C 147.442,105.787 136.942,126.287 115.5,141C 91.0276,153.849 66.6943,153.516 42.5,140C 38.5,135.667 38.5,131.333 42.5,127C 48.9829,126.16 55.3162,124.826 61.5,123C 48.5181,111.394 43.0181,96.8936 45,79.5C 45.5731,72.8742 47.2397,66.5409 50,60.5C 52.9948,57.7352 56.4948,56.9019 60.5,58C 67.695,67.8491 77.195,74.3491 89,77.5C 92.0143,63.9867 100.181,55.6533 113.5,52.5 Z M 115.5,68.5 C 107.02,72.659 103.52,79.659 105,89.5C 104.167,91 103,92.1667 101.5,93C 86.3648,94.8428 72.8648,91.0095 61,81.5C 60.1077,99.2021 67.941,111.369 84.5,118C 89.4993,125.276 87.8326,130.61 79.5,134C 83.8695,134.425 88.2028,134.092 92.5,133C 119.895,123.743 132.395,104.576 130,75.5C 126.356,70.686 121.522,68.3526 115.5,68.5 Z"/></g>
<g><path style="opacity:0.934" fill="#000000" d="M 306.5,176.5 C 309.187,176.336 311.854,176.503 314.5,177C 316.333,177.5 317.5,178.667 318,180.5C 318.989,224.25 318.656,267.917 317,311.5C 313.421,314.854 309.588,315.187 305.5,312.5C 303.333,309.531 301.999,306.197 301.5,302.5C 296.325,299.412 290.992,296.579 285.5,294C 281.196,289.845 280.862,285.512 284.5,281C 286.199,280.042 288.033,279.542 290,279.5C 294.329,280.33 298.329,281.997 302,284.5C 302.833,258.494 302.667,232.494 301.5,206.5C 283.781,215.612 265.281,222.612 246,227.5C 245.5,239.495 245.333,251.495 245.5,263.5C 252.69,264.548 259.69,266.381 266.5,269C 272.701,276.309 271.201,281.475 262,284.5C 255.518,282.421 249.018,280.421 242.5,278.5C 241.5,279 240.5,279.5 239.5,280C 234.511,280.499 229.511,280.666 224.5,280.5C 225.482,296.329 226.482,312.162 227.5,328C 226.791,336.522 222.457,339.189 214.5,336C 213.667,335.167 212.833,334.333 212,333.5C 210.606,315.844 209.439,298.177 208.5,280.5C 199.565,282.03 192.731,279.03 188,271.5C 186.394,255.22 186.061,238.887 187,222.5C 188.618,215.216 193.118,211.049 200.5,210C 212.833,209.333 225.167,209.333 237.5,210C 239.355,210.422 241.189,210.922 243,211.5C 263.706,206.395 283.206,198.395 301.5,187.5C 301.833,183.17 303.5,179.504 306.5,176.5 Z M 202.5,225.5 C 202.5,238.5 202.5,251.5 202.5,264.5C 211.5,264.5 220.5,264.5 229.5,264.5C 229.5,251.5 229.5,238.5 229.5,225.5C 220.5,225.5 211.5,225.5 202.5,225.5 Z"/></g>
<g><path style="opacity:0.935" fill="#000000" d="M 374.5,356.5 C 399.502,356.333 424.502,356.5 449.5,357C 457.333,359.5 462.5,364.667 465,372.5C 465.667,397.833 465.667,423.167 465,448.5C 462.833,456 458,460.833 450.5,463C 424.833,463.667 399.167,463.667 373.5,463C 365.556,460.723 360.722,455.556 359,447.5C 358.333,422.5 358.333,397.5 359,372.5C 361.685,364.65 366.852,359.316 374.5,356.5 Z M 377.5,372.5 C 376.878,373.627 376.045,374.627 375,375.5C 374.177,398.876 374.344,422.21 375.5,445.5C 376.025,446.192 376.692,446.692 377.5,447C 400.876,447.823 424.21,447.656 447.5,446.5C 448.192,445.975 448.692,445.308 449,444.5C 449.667,421.5 449.667,398.5 449,375.5C 448.167,374.667 447.333,373.833 446.5,373C 423.502,372.5 400.502,372.333 377.5,372.5 Z M 408.5,403.5 C 406.427,405.359 405.094,407.692 404.5,410.5C 409.8,419.902 414.8,419.735 419.5,410C 417.961,404.304 414.295,402.137 408.5,403.5 Z"/></g>
<g><path style="opacity:0.927" fill="#000000" d="M 81.5,368.5 C 86.1929,368.898 90.5262,370.398 94.5,373C 110.749,382.374 126.916,391.874 143,401.5C 147.44,409.211 145.94,415.377 138.5,420C 122.67,428.747 107.004,437.747 91.5,447C 86.5,450.333 81.5,450.333 76.5,447C 74.2256,444.656 73.0589,441.822 73,438.5C 72.3333,418.833 72.3333,399.167 73,379.5C 73.4543,373.897 76.2876,370.23 81.5,368.5 Z M 88.5,388.5 C 88.3334,402.171 88.5001,415.837 89,429.5C 100.748,423.044 112.248,416.211 123.5,409C 111.806,402.155 100.139,395.322 88.5,388.5 Z"/></g>
<g><path style="opacity:0.924" fill="#000000" d="M 405.5,387.5 C 423.044,385.382 433.044,393.049 435.5,410.5C 433.253,426.793 423.92,434.293 407.5,433C 392.247,428.336 386.414,418.169 390,402.5C 393.106,395.225 398.272,390.225 405.5,387.5 Z M 408.5,403.5 C 406.427,405.359 405.094,407.692 404.5,410.5C 409.8,419.902 414.8,419.735 419.5,410C 417.961,404.304 414.295,402.137 408.5,403.5 Z"/></g>
</svg>
