<?xml version="1.0" encoding="UTF-8"?>
<!DOCTYPE svg PUBLIC "-//W3C//DTD SVG 1.1//EN" "http://www.w3.org/Graphics/SVG/1.1/DTD/svg11.dtd">
<svg xmlns="http://www.w3.org/2000/svg" version="1.1" width="512px" height="512px" style="shape-rendering:geometricPrecision; text-rendering:geometricPrecision; image-rendering:optimizeQuality; fill-rule:evenodd; clip-rule:evenodd" xmlns:xlink="http://www.w3.org/1999/xlink">
<g><path style="opacity:0.932" fill="#000000" d="M 150.5,29.5 C 168.503,29.3334 186.503,29.5001 204.5,30C 207.108,31.3783 208.608,33.545 209,36.5C 209.5,51.1629 209.667,65.8295 209.5,80.5C 218.275,82.6492 226.609,85.9825 234.5,90.5C 245.319,80.1809 255.986,69.6809 266.5,59C 269.167,58.3333 271.833,58.3333 274.5,59C 287.333,70.5 299.5,82.6667 311,95.5C 311.79,98.634 311.457,101.634 310,104.5C 299.652,114.681 289.486,125.014 279.5,135.5C 283.809,143.095 287.143,151.095 289.5,159.5C 304.155,160.333 318.822,160.833 333.5,161C 336.455,161.392 338.622,162.892 340,165.5C 340.667,183.167 340.667,200.833 340,218.5C 339.167,220.667 337.667,222.167 335.5,223C 320.17,223.5 304.837,223.667 289.5,223.5C 287.57,232.365 284.237,240.698 279.5,248.5C 289.152,258.653 298.986,268.653 309,278.5C 311.869,282.258 312.202,286.258 310,290.5C 298.5,302 287,313.5 275.5,325C 271.634,327.12 267.967,326.786 264.5,324C 254.833,314.333 245.167,304.667 235.5,295C 234.5,294.333 233.5,294.333 232.5,295C 225.569,298.977 218.236,301.977 210.5,304C 209.675,318.425 209.175,332.925 209,347.5C 208.619,351.547 206.453,354.047 202.5,355C 184.767,355.959 167.101,355.625 149.5,354C 148.299,353.097 147.465,351.931 147,350.5C 147.144,334.762 146.31,319.262 144.5,304C 136.764,301.977 129.431,298.977 122.5,295C 121.5,294.333 120.5,294.333 119.5,295C 109.5,305 99.5,315 89.5,325C 86.1667,327 82.8333,327 79.5,325C 68,313.5 56.5,302 45,290.5C 43,287.167 43,283.833 45,280.5C 55.5426,270.292 65.7093,259.792 75.5,249C 71.2871,241.195 67.9537,233.028 65.5,224.5C 50.1775,223.667 34.8442,223.167 19.5,223C 18.0692,222.535 16.9025,221.701 16,220.5C 14.3608,202.591 14.0274,184.591 15,166.5C 15.9404,163.227 18.1071,161.394 21.5,161C 36.178,160.833 50.8447,160.333 65.5,159.5C 68.2813,151.271 71.6146,143.271 75.5,135.5C 65.5143,125.014 55.3476,114.681 45,104.5C 43.5432,101.634 43.2099,98.634 44,95.5C 56.2208,83.2792 68.3874,71.1126 80.5,59C 84.5328,57.9596 88.1995,58.6263 91.5,61C 101.333,70.8333 111.167,80.6667 121,90.5C 129.001,86.056 137.335,82.3893 146,79.5C 146.333,64.1667 146.667,48.8333 147,33.5C 148.376,32.2949 149.542,30.9616 150.5,29.5 Z M 162.5,45.5 C 172.5,45.5 182.5,45.5 192.5,45.5C 192.333,60.1705 192.5,74.8371 193,89.5C 193.833,91.6667 195.333,93.1667 197.5,94C 210.415,96.8589 222.415,101.859 233.5,109C 235.167,109.667 236.833,109.667 238.5,109C 249.137,99.3635 259.471,89.3635 269.5,79C 270.167,78.3333 270.833,78.3333 271.5,79C 278.167,85.6667 284.833,92.3333 291.5,99C 282,108.5 272.5,118 263,127.5C 261.743,129.513 260.909,131.679 260.5,134C 267.225,146.957 272.725,160.457 277,174.5C 278.171,175.893 279.671,176.727 281.5,177C 295.829,177.5 310.163,177.667 324.5,177.5C 324.5,187.5 324.5,197.5 324.5,207.5C 309.496,207.333 294.496,207.5 279.5,208C 278.333,209.167 277.167,210.333 276,211.5C 273.144,224.403 268.144,236.403 261,247.5C 260.333,249.5 260.333,251.5 261,253.5C 270.803,264.304 280.97,274.804 291.5,285C 284.833,291.667 278.167,298.333 271.5,305C 270.833,305.667 270.167,305.667 269.5,305C 259.804,294.97 249.804,285.303 239.5,276C 237.167,275.333 234.833,275.333 232.5,276C 221.985,282.617 210.652,287.284 198.5,290C 196,291.167 194.167,293 193,295.5C 192.5,309.829 192.333,324.163 192.5,338.5C 182.5,338.5 172.5,338.5 162.5,338.5C 162.667,323.83 162.5,309.163 162,294.5C 160.457,292.622 158.624,291.122 156.5,290C 144.348,287.284 133.015,282.617 122.5,276C 120.167,275.333 117.833,275.333 115.5,276C 105.196,285.303 95.1961,294.97 85.5,305C 84.8333,305.667 84.1667,305.667 83.5,305C 76.8333,298.333 70.1667,291.667 63.5,285C 74.0301,274.804 84.1968,264.304 94,253.5C 94.6667,251.5 94.6667,249.5 94,247.5C 86.8589,236.415 81.8589,224.415 79,211.5C 78.1667,210 77,208.833 75.5,208C 60.5037,207.5 45.5037,207.333 30.5,207.5C 30.5,197.5 30.5,187.5 30.5,177.5C 44.8372,177.667 59.1705,177.5 73.5,177C 75.8477,176.654 77.6811,175.487 79,173.5C 81.7251,161.314 86.3917,149.981 93,139.5C 94.3185,136.594 94.6518,133.594 94,130.5C 84.1968,119.696 74.0301,109.196 63.5,99C 70.3477,91.9853 77.3477,85.152 84.5,78.5C 94.6525,88.1523 104.653,97.9857 114.5,108C 116.137,108.601 117.803,109.101 119.5,109.5C 132.199,102.542 145.533,97.0424 159.5,93C 160.701,92.0975 161.535,90.9308 162,89.5C 162.5,74.8371 162.667,60.1705 162.5,45.5 Z M 167.5,123.5 C 198.205,120.936 221.705,132.603 238,158.5C 251.492,186.537 248.825,212.87 230,237.5C 201.586,265.35 170.42,268.85 136.5,248C 112.874,228.457 104.374,203.624 111,173.5C 120.378,145.945 139.212,129.278 167.5,123.5 Z M 171.5,146.5 C 192.945,145.149 208.778,153.816 219,172.5C 228.507,199.318 221.007,219.818 196.5,234C 169.062,243.079 148.562,234.913 135,209.5C 127.08,176.656 139.247,155.656 171.5,146.5 Z"/></g>
<g><path style="opacity:0.93" fill="#000000" d="M 169.5,106.5 C 211.649,105.53 241.149,124.197 258,162.5C 270.261,203.327 259.761,236.827 226.5,263C 200.171,279.196 172.505,281.863 143.5,271C 110.818,255.126 93.4845,228.959 91.5,192.5C 95.5687,143.771 121.569,115.105 169.5,106.5 Z M 167.5,123.5 C 139.212,129.278 120.378,145.945 111,173.5C 104.374,203.624 112.874,228.457 136.5,248C 170.42,268.85 201.586,265.35 230,237.5C 248.825,212.87 251.492,186.537 238,158.5C 221.705,132.603 198.205,120.936 167.5,123.5 Z M 171.5,146.5 C 139.247,155.656 127.08,176.656 135,209.5C 148.562,234.913 169.062,243.079 196.5,234C 221.007,219.818 228.507,199.318 219,172.5C 208.778,153.816 192.945,145.149 171.5,146.5 Z"/></g>
<g><path style="opacity:0.932" fill="#000000" d="M 174.5,129.5 C 209.295,130.471 230.795,147.804 239,181.5C 242.332,215.685 228.166,239.185 196.5,252C 166.911,259.14 143.077,250.64 125,226.5C 111.201,200.945 112.534,176.278 129,152.5C 141.225,138.805 156.391,131.138 174.5,129.5 Z M 171.5,146.5 C 139.247,155.656 127.08,176.656 135,209.5C 148.562,234.913 169.062,243.079 196.5,234C 221.007,219.818 228.507,199.318 219,172.5C 208.778,153.816 192.945,145.149 171.5,146.5 Z"/></g>
<g><path style="opacity:0.937" fill="#000000" d="M 355.5,245.5 C 380.219,245.039 404.885,245.539 429.5,247C 431.049,248.214 432.215,249.714 433,251.5C 433.5,272.831 433.667,294.164 433.5,315.5C 440.257,315.123 446.924,315.623 453.5,317C 454.701,317.903 455.535,319.069 456,320.5C 456.5,342.164 456.667,363.831 456.5,385.5C 477.862,387.253 490.695,398.586 495,419.5C 495.667,427.833 495.667,436.167 495,444.5C 491.251,464.915 479.085,476.415 458.5,479C 322.833,479.667 187.167,479.667 51.5,479C 25.3537,474.671 13.0204,459.171 14.5,432.5C 12.4847,408.05 23.1514,392.55 46.5,386C 131.166,385.5 215.833,385.333 300.5,385.5C 300.044,363.447 300.544,341.447 302,319.5C 303.319,317.513 305.152,316.346 307.5,316C 320.829,315.5 334.163,315.333 347.5,315.5C 347.333,293.831 347.5,272.164 348,250.5C 349.913,247.72 352.413,246.053 355.5,245.5 Z M 363.5,262.5 C 381.5,262.5 399.5,262.5 417.5,262.5C 417.5,280.167 417.5,297.833 417.5,315.5C 399.5,315.5 381.5,315.5 363.5,315.5C 363.5,297.833 363.5,280.167 363.5,262.5 Z M 317.5,332.5 C 335.167,332.5 352.833,332.5 370.5,332.5C 370.5,350.167 370.5,367.833 370.5,385.5C 352.833,385.5 335.167,385.5 317.5,385.5C 317.5,367.833 317.5,350.167 317.5,332.5 Z M 387.5,332.5 C 405.167,332.5 422.833,332.5 440.5,332.5C 440.5,350.167 440.5,367.833 440.5,385.5C 422.833,385.5 405.167,385.5 387.5,385.5C 387.5,367.833 387.5,350.167 387.5,332.5 Z M 52.5,401.5 C 187.5,401.333 322.5,401.5 457.5,402C 470.463,403.963 477.63,411.463 479,424.5C 479.88,432.966 479.214,441.299 477,449.5C 473.694,455.911 468.528,460.078 461.5,462C 323.833,462.667 186.167,462.667 48.5,462C 38.0533,458.615 32.2199,451.448 31,440.5C 29.5652,430.411 30.8985,420.744 35,411.5C 39.6691,405.921 45.5025,402.588 52.5,401.5 Z M 96.5,425.5 C 102.295,424.137 105.961,426.304 107.5,432C 105.245,439.801 100.911,441.301 94.5,436.5C 92.7624,432.31 93.429,428.643 96.5,425.5 Z M 174.5,425.5 C 182.33,424.495 185.496,427.828 184,435.5C 179.162,441.036 174.829,440.703 171,434.5C 170.043,430.639 171.21,427.639 174.5,425.5 Z M 251.5,425.5 C 257.518,424.191 261.185,426.524 262.5,432.5C 257.5,441.833 252.5,441.833 247.5,432.5C 248.094,429.692 249.427,427.359 251.5,425.5 Z M 329.5,425.5 C 336.497,424.666 339.664,427.666 339,434.5C 335.171,440.703 330.838,441.036 326,435.5C 324.756,431.191 325.923,427.858 329.5,425.5 Z M 406.5,425.5 C 414.382,424.546 417.549,427.879 416,435.5C 411.295,440.964 406.962,440.631 403,434.5C 402.481,430.868 403.647,427.868 406.5,425.5 Z"/></g>
<g><path style="opacity:0.93" fill="#000000" d="M 95.5,408.5 C 115.683,408.513 124.849,418.513 123,438.5C 117.865,452.156 108.031,457.656 93.5,455C 80.4456,449.932 74.9456,440.432 77,426.5C 79.7894,416.875 85.956,410.875 95.5,408.5 Z M 96.5,425.5 C 93.429,428.643 92.7624,432.31 94.5,436.5C 100.911,441.301 105.245,439.801 107.5,432C 105.961,426.304 102.295,424.137 96.5,425.5 Z"/></g>
<g><path style="opacity:0.929" fill="#000000" d="M 172.5,408.5 C 189.435,407.772 199.102,415.772 201.5,432.5C 197.431,453.039 185.431,459.872 165.5,453C 153.428,443.642 150.928,432.142 158,418.5C 162.012,413.762 166.845,410.429 172.5,408.5 Z M 174.5,425.5 C 171.21,427.639 170.043,430.639 171,434.5C 174.829,440.703 179.162,441.036 184,435.5C 185.496,427.828 182.33,424.495 174.5,425.5 Z"/></g>
<g><path style="opacity:0.929" fill="#000000" d="M 250.5,408.5 C 270.63,408.463 279.797,418.463 278,438.5C 270.487,455.23 258.32,459.73 241.5,452C 230.377,442.106 228.543,430.606 236,417.5C 240.053,413.066 244.886,410.066 250.5,408.5 Z M 251.5,425.5 C 249.427,427.359 248.094,429.692 247.5,432.5C 252.5,441.833 257.5,441.833 262.5,432.5C 261.185,426.524 257.518,424.191 251.5,425.5 Z"/></g>
<g><path style="opacity:0.928" fill="#000000" d="M 327.5,408.5 C 344.192,407.694 353.859,415.527 356.5,432C 355.677,443.335 350.011,451.001 339.5,455C 321.179,458.005 310.846,450.338 308.5,432C 309.944,420.069 316.278,412.236 327.5,408.5 Z M 329.5,425.5 C 325.923,427.858 324.756,431.191 326,435.5C 330.838,441.036 335.171,440.703 339,434.5C 339.664,427.666 336.497,424.666 329.5,425.5 Z"/></g>
<g><path style="opacity:0.931" fill="#000000" d="M 405.5,408.5 C 425.142,408.307 434.308,417.974 433,437.5C 426.053,455.044 413.887,459.877 396.5,452C 386.239,443.483 383.739,432.983 389,420.5C 392.892,414.151 398.392,410.151 405.5,408.5 Z M 406.5,425.5 C 403.647,427.868 402.481,430.868 403,434.5C 406.962,440.631 411.295,440.964 416,435.5C 417.549,427.879 414.382,424.546 406.5,425.5 Z"/></g>
</svg>
