<?xml version="1.0" encoding="UTF-8"?>
<!DOCTYPE svg PUBLIC "-//W3C//DTD SVG 1.1//EN" "http://www.w3.org/Graphics/SVG/1.1/DTD/svg11.dtd">
<svg xmlns="http://www.w3.org/2000/svg" version="1.1" width="512px" height="512px" style="shape-rendering:geometricPrecision; text-rendering:geometricPrecision; image-rendering:optimizeQuality; fill-rule:evenodd; clip-rule:evenodd" xmlns:xlink="http://www.w3.org/1999/xlink">
<g><path style="opacity:0.997" fill="#000000" d="M 11.5,7.5 C 121.581,7.0042 231.581,7.5042 341.5,9C 342.126,9.75044 342.626,10.5838 343,11.5C 343.333,30.1667 343.667,48.8333 344,67.5C 360.029,83.1952 375.696,99.1952 391,115.5C 391.5,164.832 391.667,214.166 391.5,263.5C 427.502,263.333 463.502,263.5 499.5,264C 501.333,264.5 502.5,265.667 503,267.5C 503.667,344.833 503.667,422.167 503,499.5C 502.626,500.416 502.126,501.25 501.5,502C 354.247,503.663 206.914,503.997 59.5,503C 57.6667,502.5 56.5,501.333 56,499.5C 55.5002,490.173 55.3335,480.839 55.5,471.5C 40.8295,471.667 26.1629,471.5 11.5,471C 9.66667,470.5 8.5,469.333 8,467.5C 7.33333,315.5 7.33333,163.5 8,11.5C 8.68972,9.64977 9.85639,8.31643 11.5,7.5 Z M 23.5,23.5 C 124.833,23.5 226.167,23.5 327.5,23.5C 327.666,32.5062 327.5,41.5062 327,50.5C 323.466,46.6311 319.633,43.1311 315.5,40C 230.167,39.3333 144.833,39.3333 59.5,40C 58.5838,40.3742 57.7504,40.8742 57,41.5C 55.5033,179.419 55.0033,317.419 55.5,455.5C 44.8333,455.5 34.1667,455.5 23.5,455.5C 23.5,311.5 23.5,167.5 23.5,23.5 Z M 71.5,55.5 C 148.833,55.5 226.167,55.5 303.5,55.5C 303.02,78.9237 303.52,102.257 305,125.5C 305.75,126.126 306.584,126.626 307.5,127C 330.164,127.5 352.831,127.667 375.5,127.5C 375.5,172.833 375.5,218.167 375.5,263.5C 370.167,263.5 364.833,263.5 359.5,263.5C 359.666,254.161 359.5,244.827 359,235.5C 358.5,233.667 357.333,232.5 355.5,232C 267.5,231.333 179.5,231.333 91.5,232C 89.6667,232.5 88.5,233.667 88,235.5C 87.3333,310.167 87.3333,384.833 88,459.5C 88.3742,460.416 88.8742,461.25 89.5,462C 168.751,463.494 248.084,463.994 327.5,463.5C 327.5,471.5 327.5,479.5 327.5,487.5C 242.167,487.5 156.833,487.5 71.5,487.5C 71.5,343.5 71.5,199.5 71.5,55.5 Z M 319.5,68.5 C 333.965,82.4648 348.299,96.6315 362.5,111C 348.171,111.5 333.837,111.667 319.5,111.5C 319.5,97.1667 319.5,82.8333 319.5,68.5 Z M 213.5,88.5 C 239.01,85.674 258.51,95.0074 272,116.5C 285.412,147.703 278.245,172.87 250.5,192C 219.297,205.412 194.13,198.245 175,170.5C 161.588,139.297 168.755,114.13 196.5,95C 202.054,92.2101 207.721,90.0435 213.5,88.5 Z M 103.5,247.5 C 183.5,247.5 263.5,247.5 343.5,247.5C 343.5,252.833 343.5,258.167 343.5,263.5C 339.486,263.334 335.486,263.501 331.5,264C 329.667,264.5 328.5,265.667 328,267.5C 327.5,327.499 327.333,387.499 327.5,447.5C 252.833,447.5 178.167,447.5 103.5,447.5C 103.5,380.833 103.5,314.167 103.5,247.5 Z M 343.5,279.5 C 391.5,279.5 439.5,279.5 487.5,279.5C 487.5,348.833 487.5,418.167 487.5,487.5C 439.5,487.5 391.5,487.5 343.5,487.5C 343.5,418.167 343.5,348.833 343.5,279.5 Z M 375.5,311.5 C 402.167,311.5 428.833,311.5 455.5,311.5C 455.5,327.5 455.5,343.5 455.5,359.5C 428.833,359.5 402.167,359.5 375.5,359.5C 375.5,343.5 375.5,327.5 375.5,311.5 Z"/></g>
<g><path style="opacity:0.931" fill="#000000" d="M 211.5,71.5 C 248.533,68.2581 275.033,83.2581 291,116.5C 302.523,152.929 293.023,182.429 262.5,205C 226.717,223.526 194.884,218.359 167,189.5C 150.603,167.169 146.937,142.836 156,116.5C 166.813,91.8641 185.313,76.8641 211.5,71.5 Z M 213.5,88.5 C 207.721,90.0435 202.054,92.2101 196.5,95C 168.755,114.13 161.588,139.297 175,170.5C 194.13,198.245 219.297,205.412 250.5,192C 278.245,172.87 285.412,147.703 272,116.5C 258.51,95.0074 239.01,85.674 213.5,88.5 Z"/></g>
<g><path style="opacity:0.943" fill="#000000" d="M 215.5,95.5 C 220.833,95.5 226.167,95.5 231.5,95.5C 231.183,98.5719 231.516,101.572 232.5,104.5C 242.291,109.091 247.291,116.757 247.5,127.5C 241.833,127.5 236.167,127.5 230.5,127.5C 229.736,121.608 226.402,119.441 220.5,121C 216.304,123.981 215.471,127.814 218,132.5C 224.533,134.486 231.033,136.652 237.5,139C 247.366,147.134 250.199,157.301 246,169.5C 242.972,175.361 238.472,179.694 232.5,182.5C 231.516,185.428 231.183,188.428 231.5,191.5C 226.167,191.5 220.833,191.5 215.5,191.5C 215.817,188.428 215.484,185.428 214.5,182.5C 204.709,177.909 199.709,170.243 199.5,159.5C 205.167,159.5 210.833,159.5 216.5,159.5C 217.264,165.392 220.598,167.559 226.5,166C 230.696,163.019 231.529,159.186 229,154.5C 222.467,152.514 215.967,150.348 209.5,148C 199.634,139.866 196.801,129.699 201,117.5C 204.028,111.639 208.528,107.306 214.5,104.5C 215.484,101.572 215.817,98.5719 215.5,95.5 Z"/></g>
<g><path style="opacity:0.943" fill="#000000" d="M 135.5,263.5 C 140.833,263.5 146.167,263.5 151.5,263.5C 151.183,266.572 151.516,269.572 152.5,272.5C 162.291,277.091 167.291,284.757 167.5,295.5C 161.833,295.5 156.167,295.5 150.5,295.5C 149.736,289.608 146.402,287.441 140.5,289C 136.304,291.981 135.471,295.814 138,300.5C 144.533,302.486 151.033,304.652 157.5,307C 167.366,315.134 170.199,325.301 166,337.5C 162.972,343.361 158.472,347.694 152.5,350.5C 151.516,353.428 151.183,356.428 151.5,359.5C 146.167,359.5 140.833,359.5 135.5,359.5C 135.817,356.428 135.484,353.428 134.5,350.5C 124.709,345.909 119.709,338.243 119.5,327.5C 125.167,327.5 130.833,327.5 136.5,327.5C 137.264,333.392 140.598,335.559 146.5,334C 150.696,331.019 151.529,327.186 149,322.5C 142.467,320.514 135.967,318.348 129.5,316C 119.634,307.866 116.801,297.699 121,285.5C 124.028,279.639 128.528,275.306 134.5,272.5C 135.484,269.572 135.817,266.572 135.5,263.5 Z"/></g>
<g><path style="opacity:1" fill="#000000" d="M 183.5,279.5 C 226.167,279.5 268.833,279.5 311.5,279.5C 311.5,284.833 311.5,290.167 311.5,295.5C 268.833,295.5 226.167,295.5 183.5,295.5C 183.5,290.167 183.5,284.833 183.5,279.5 Z"/></g>
<g><path style="opacity:0.995" fill="#000000" d="M 363.5,295.5 C 398.92,295.013 434.253,295.513 469.5,297C 470.126,297.75 470.626,298.584 471,299.5C 471.167,311.5 471.333,323.5 471.5,335.5C 471.649,348.258 471.149,360.925 470,373.5C 469.25,374.126 468.416,374.626 467.5,375C 450.167,375.167 432.833,375.333 415.5,375.5C 397.412,375.654 379.412,375.154 361.5,374C 360.874,373.25 360.374,372.416 360,371.5C 359.333,347.5 359.333,323.5 360,299.5C 360.69,297.65 361.856,296.316 363.5,295.5 Z M 375.5,311.5 C 375.5,327.5 375.5,343.5 375.5,359.5C 402.167,359.5 428.833,359.5 455.5,359.5C 455.5,343.5 455.5,327.5 455.5,311.5C 428.833,311.5 402.167,311.5 375.5,311.5 Z"/></g>
<g><path style="opacity:1" fill="#000000" d="M 183.5,311.5 C 226.167,311.5 268.833,311.5 311.5,311.5C 311.5,316.833 311.5,322.167 311.5,327.5C 268.833,327.5 226.167,327.5 183.5,327.5C 183.5,322.167 183.5,316.833 183.5,311.5 Z"/></g>
<g><path style="opacity:1" fill="#000000" d="M 183.5,343.5 C 226.167,343.5 268.833,343.5 311.5,343.5C 311.5,348.833 311.5,354.167 311.5,359.5C 268.833,359.5 226.167,359.5 183.5,359.5C 183.5,354.167 183.5,348.833 183.5,343.5 Z"/></g>
<g><path style="opacity:1" fill="#000000" d="M 119.5,375.5 C 183.5,375.5 247.5,375.5 311.5,375.5C 311.5,380.833 311.5,386.167 311.5,391.5C 247.5,391.5 183.5,391.5 119.5,391.5C 119.5,386.167 119.5,380.833 119.5,375.5 Z"/></g>
<g><path style="opacity:1" fill="#000000" d="M 359.5,391.5 C 364.833,391.5 370.167,391.5 375.5,391.5C 375.5,396.833 375.5,402.167 375.5,407.5C 370.167,407.5 364.833,407.5 359.5,407.5C 359.5,402.167 359.5,396.833 359.5,391.5 Z"/></g>
<g><path style="opacity:1" fill="#000000" d="M 391.5,391.5 C 396.833,391.5 402.167,391.5 407.5,391.5C 407.5,396.833 407.5,402.167 407.5,407.5C 402.167,407.5 396.833,407.5 391.5,407.5C 391.5,402.167 391.5,396.833 391.5,391.5 Z"/></g>
<g><path style="opacity:1" fill="#000000" d="M 423.5,391.5 C 428.833,391.5 434.167,391.5 439.5,391.5C 439.5,396.833 439.5,402.167 439.5,407.5C 434.167,407.5 428.833,407.5 423.5,407.5C 423.5,402.167 423.5,396.833 423.5,391.5 Z"/></g>
<g><path style="opacity:1" fill="#000000" d="M 455.5,391.5 C 460.833,391.5 466.167,391.5 471.5,391.5C 471.5,407.5 471.5,423.5 471.5,439.5C 466.167,439.5 460.833,439.5 455.5,439.5C 455.5,423.5 455.5,407.5 455.5,391.5 Z"/></g>
<g><path style="opacity:1" fill="#000000" d="M 119.5,407.5 C 183.5,407.5 247.5,407.5 311.5,407.5C 311.5,412.833 311.5,418.167 311.5,423.5C 247.5,423.5 183.5,423.5 119.5,423.5C 119.5,418.167 119.5,412.833 119.5,407.5 Z"/></g>
<g><path style="opacity:1" fill="#000000" d="M 359.5,423.5 C 364.833,423.5 370.167,423.5 375.5,423.5C 375.5,428.833 375.5,434.167 375.5,439.5C 370.167,439.5 364.833,439.5 359.5,439.5C 359.5,434.167 359.5,428.833 359.5,423.5 Z"/></g>
<g><path style="opacity:1" fill="#000000" d="M 391.5,423.5 C 396.833,423.5 402.167,423.5 407.5,423.5C 407.5,428.833 407.5,434.167 407.5,439.5C 402.167,439.5 396.833,439.5 391.5,439.5C 391.5,434.167 391.5,428.833 391.5,423.5 Z"/></g>
<g><path style="opacity:1" fill="#000000" d="M 423.5,423.5 C 428.833,423.5 434.167,423.5 439.5,423.5C 439.5,428.833 439.5,434.167 439.5,439.5C 434.167,439.5 428.833,439.5 423.5,439.5C 423.5,434.167 423.5,428.833 423.5,423.5 Z"/></g>
<g><path style="opacity:1" fill="#000000" d="M 359.5,455.5 C 364.833,455.5 370.167,455.5 375.5,455.5C 375.5,460.833 375.5,466.167 375.5,471.5C 370.167,471.5 364.833,471.5 359.5,471.5C 359.5,466.167 359.5,460.833 359.5,455.5 Z"/></g>
<g><path style="opacity:1" fill="#000000" d="M 391.5,455.5 C 396.833,455.5 402.167,455.5 407.5,455.5C 407.5,460.833 407.5,466.167 407.5,471.5C 402.167,471.5 396.833,471.5 391.5,471.5C 391.5,466.167 391.5,460.833 391.5,455.5 Z"/></g>
<g><path style="opacity:1" fill="#000000" d="M 423.5,455.5 C 428.833,455.5 434.167,455.5 439.5,455.5C 439.5,460.833 439.5,466.167 439.5,471.5C 434.167,471.5 428.833,471.5 423.5,471.5C 423.5,466.167 423.5,460.833 423.5,455.5 Z"/></g>
<g><path style="opacity:1" fill="#000000" d="M 455.5,455.5 C 460.833,455.5 466.167,455.5 471.5,455.5C 471.5,460.833 471.5,466.167 471.5,471.5C 466.167,471.5 460.833,471.5 455.5,471.5C 455.5,466.167 455.5,460.833 455.5,455.5 Z"/></g>
</svg>
