<?xml version="1.0" encoding="UTF-8"?>
<!DOCTYPE svg PUBLIC "-//W3C//DTD SVG 1.1//EN" "http://www.w3.org/Graphics/SVG/1.1/DTD/svg11.dtd">
<svg xmlns="http://www.w3.org/2000/svg" version="1.1" width="512px" height="512px" style="shape-rendering:geometricPrecision; text-rendering:geometricPrecision; image-rendering:optimizeQuality; fill-rule:evenodd; clip-rule:evenodd" xmlns:xlink="http://www.w3.org/1999/xlink">
<g><path style="opacity:0.944" fill="#000000" d="M 131.5,-0.5 C 222.167,-0.5 312.833,-0.5 403.5,-0.5C 409.184,1.51066 414.517,4.344 419.5,8C 446.667,35.1667 473.833,62.3333 501,89.5C 505.207,94.7754 507.873,100.775 509,107.5C 509.667,231.833 509.667,356.167 509,480.5C 505.531,496.465 496.031,506.799 480.5,511.5C 364.167,511.5 247.833,511.5 131.5,511.5C 118.02,507.523 108.853,498.856 104,485.5C 102.436,472.882 102.103,460.215 103,447.5C 106.013,442.465 110.18,441.298 115.5,444C 116.701,444.903 117.535,446.069 118,447.5C 118.333,457.833 118.667,468.167 119,478.5C 120.975,486.477 125.808,491.977 133.5,495C 193.135,496.643 252.802,496.977 312.5,496C 291.333,474.833 270.167,453.667 249,432.5C 245.741,426.807 244.741,420.807 246,414.5C 241.652,409.985 237.152,405.651 232.5,401.5C 181.291,434.038 128.624,436.538 74.5,409C 27.4877,380.005 3.15433,337.672 1.5,282C 3.64623,221.661 31.3129,177.661 84.5,150C 136.19,128.196 185.524,132.529 232.5,163C 281.787,201.837 300.954,252.337 290,314.5C 285.549,333.565 277.715,351.065 266.5,367C 270.833,371.333 275.167,375.667 279.5,380C 283.833,380.333 288.167,380.667 292.5,381C 293.833,381.667 295.167,382.333 296.5,383C 321.333,407.833 346.167,432.667 371,457.5C 378.912,469.875 379.412,482.541 372.5,495.5C 405.828,496.667 439.162,496.833 472.5,496C 483.332,494.834 490.165,489 493,478.5C 493.5,355.5 493.667,232.5 493.5,109.5C 468.831,109.667 444.164,109.5 419.5,109C 407.776,105.943 400.942,98.4428 399,86.5C 398.5,62.8357 398.333,39.169 398.5,15.5C 354.688,14.8438 310.855,14.5105 267,14.5C 222.469,14.349 177.969,14.849 133.5,16C 125.808,19.0227 120.975,24.5227 119,32.5C 118.667,60.5 118.333,88.5 118,116.5C 114.987,121.535 110.82,122.702 105.5,120C 104.299,119.097 103.465,117.931 103,116.5C 102.333,87.8333 102.333,59.1667 103,30.5C 106.469,14.5346 115.969,4.20122 131.5,-0.5 Z M 414.5,26.5 C 436.965,48.465 459.299,70.6317 481.5,93C 460.744,93.9763 440.077,93.6429 419.5,92C 417.106,90.0478 415.606,87.5478 415,84.5C 414.5,65.1695 414.333,45.8362 414.5,26.5 Z M 165.5,63.5 C 215.5,63.5 265.5,63.5 315.5,63.5C 315.5,73.5 315.5,83.5 315.5,93.5C 265.5,93.5 215.5,93.5 165.5,93.5C 165.5,83.5 165.5,73.5 165.5,63.5 Z M 132.5,152.5 C 186.064,149.201 227.897,169.534 258,213.5C 286.495,265.452 283.495,315.452 249,363.5C 212.028,405.488 166.195,419.988 111.5,407C 57.0021,388.493 25.8354,350.659 18,293.5C 15.5468,239.901 36.7134,198.734 81.5,170C 97.5181,160.923 114.518,155.09 132.5,152.5 Z M 125.5,221.5 C 139.171,221.333 152.837,221.5 166.5,222C 167.863,225.6 169.53,229.1 171.5,232.5C 174.772,234.911 178.439,236.577 182.5,237.5C 183.309,239.071 183.643,240.738 183.5,242.5C 177.189,241.573 170.856,241.406 164.5,242C 155.828,244.175 147.494,247.175 139.5,251C 129.839,251.5 120.172,251.666 110.5,251.5C 110.124,244.673 110.957,238.006 113,231.5C 115.887,226.434 120.054,223.101 125.5,221.5 Z M 166.5,257.5 C 172.189,257.532 177.855,257.866 183.5,258.5C 183.5,263.5 183.5,268.5 183.5,273.5C 180.737,273.744 178.571,275.077 177,277.5C 174.449,299.397 162.283,309.563 140.5,308C 130.522,305.357 123.689,299.191 120,289.5C 119.302,284.627 117.968,279.96 116,275.5C 114.416,274.139 112.582,273.472 110.5,273.5C 110.5,271.5 110.5,269.5 110.5,267.5C 120.839,267.666 131.172,267.5 141.5,267C 150.349,264.897 158.682,261.731 166.5,257.5 Z M 135.5,323.5 C 142.697,324.784 149.864,324.784 157,323.5C 157.673,326.521 158.007,329.521 158,332.5C 150.085,337.806 142.252,337.639 134.5,332C 135.444,329.281 135.777,326.448 135.5,323.5 Z M 115.5,341.5 C 117.199,341.34 118.866,341.506 120.5,342C 137.906,355.82 155.239,355.82 172.5,342C 182.849,342.086 192.849,344.086 202.5,348C 206.31,350.813 208.976,354.48 210.5,359C 185.915,379.057 157.915,386.057 126.5,380C 110.406,376.452 96.0728,369.452 83.5,359C 85.0831,355.176 87.4164,351.843 90.5,349C 98.7095,345.703 107.043,343.203 115.5,341.5 Z M 255.5,379.5 C 259.631,383.13 263.631,386.963 267.5,391C 263.985,394.682 260.318,398.182 256.5,401.5C 252.682,398.182 249.015,394.682 245.5,391C 249.439,387.571 252.772,383.737 255.5,379.5 Z M 284.5,396.5 C 285.552,396.351 286.552,396.517 287.5,397C 311,420.5 334.5,444 358,467.5C 364.404,483.024 359.404,492.691 343,496.5C 338.927,495.717 335.094,494.217 331.5,492C 308.333,468.833 285.167,445.667 262,422.5C 261.333,421.5 261.333,420.5 262,419.5C 269.702,411.965 277.202,404.298 284.5,396.5 Z"/></g>
<g><path style="opacity:0.935" fill="#000000" d="M 162.5,47.5 C 214.501,47.3333 266.501,47.5 318.5,48C 325.333,49.5 329.5,53.6667 331,60.5C 331.667,72.8333 331.667,85.1667 331,97.5C 329.167,103.333 325.333,107.167 319.5,109C 266.833,109.667 214.167,109.667 161.5,109C 156.815,107.65 153.315,104.817 151,100.5C 149.887,93.2414 149.387,85.9081 149.5,78.5C 149.667,72.1667 149.833,65.8333 150,59.5C 152.111,53.2195 156.278,49.2195 162.5,47.5 Z M 165.5,63.5 C 165.5,73.5 165.5,83.5 165.5,93.5C 215.5,93.5 265.5,93.5 315.5,93.5C 315.5,83.5 315.5,73.5 315.5,63.5C 265.5,63.5 215.5,63.5 165.5,63.5 Z"/></g>
<g><path style="opacity:0.929" fill="#000000" d="M 132.5,166.5 C 178.432,162.847 215.265,179.18 243,215.5C 268.77,257.014 270.103,299.348 247,342.5C 219.233,383.963 180.399,402.13 130.5,397C 76.4887,386.489 43.822,354.322 32.5,300.5C 35.8308,291.736 40.9974,290.403 48,296.5C 51.3623,315.22 59.029,331.887 71,346.5C 75.3258,339.84 81.1591,335.007 88.5,332C 98.6124,328.744 108.946,326.578 119.5,325.5C 119.665,322.15 119.498,318.817 119,315.5C 110.669,307.838 105.169,298.504 102.5,287.5C 97.7743,284.932 95.2743,280.932 95,275.5C 94.1272,260.797 94.4605,246.13 96,231.5C 100.02,217.481 109.187,208.981 123.5,206C 138.833,205.333 154.167,205.333 169.5,206C 177.066,208.065 181.733,212.899 183.5,220.5C 190.445,221.389 195.279,225.055 198,231.5C 199.603,247.112 199.937,262.779 199,278.5C 197.82,283.014 195.154,286.347 191,288.5C 188.911,300.012 183.245,309.345 174,316.5C 173.333,319.167 173.333,321.833 174,324.5C 184.982,326.194 195.816,328.694 206.5,332C 213.444,335.452 219.111,340.286 223.5,346.5C 244.122,321.345 251.289,292.678 245,260.5C 233.109,216.943 204.942,191.11 160.5,183C 111.594,179.528 76.427,199.695 55,243.5C 51.8642,252.379 49.1976,261.379 47,270.5C 42.7394,274.423 38.406,274.423 34,270.5C 33.077,268.966 32.577,267.299 32.5,265.5C 41.0234,218.145 68.0234,186.645 113.5,171C 119.95,169.415 126.283,167.915 132.5,166.5 Z M 125.5,221.5 C 120.054,223.101 115.887,226.434 113,231.5C 110.957,238.006 110.124,244.673 110.5,251.5C 120.172,251.666 129.839,251.5 139.5,251C 147.494,247.175 155.828,244.175 164.5,242C 170.856,241.406 177.189,241.573 183.5,242.5C 183.643,240.738 183.309,239.071 182.5,237.5C 178.439,236.577 174.772,234.911 171.5,232.5C 169.53,229.1 167.863,225.6 166.5,222C 152.837,221.5 139.171,221.333 125.5,221.5 Z M 166.5,257.5 C 158.682,261.731 150.349,264.897 141.5,267C 131.172,267.5 120.839,267.666 110.5,267.5C 110.5,269.5 110.5,271.5 110.5,273.5C 112.582,273.472 114.416,274.139 116,275.5C 117.968,279.96 119.302,284.627 120,289.5C 123.689,299.191 130.522,305.357 140.5,308C 162.283,309.563 174.449,299.397 177,277.5C 178.571,275.077 180.737,273.744 183.5,273.5C 183.5,268.5 183.5,263.5 183.5,258.5C 177.855,257.866 172.189,257.532 166.5,257.5 Z M 135.5,323.5 C 135.777,326.448 135.444,329.281 134.5,332C 142.252,337.639 150.085,337.806 158,332.5C 158.007,329.521 157.673,326.521 157,323.5C 149.864,324.784 142.697,324.784 135.5,323.5 Z M 115.5,341.5 C 107.043,343.203 98.7095,345.703 90.5,349C 87.4164,351.843 85.0831,355.176 83.5,359C 96.0728,369.452 110.406,376.452 126.5,380C 157.915,386.057 185.915,379.057 210.5,359C 208.976,354.48 206.31,350.813 202.5,348C 192.849,344.086 182.849,342.086 172.5,342C 155.239,355.82 137.906,355.82 120.5,342C 118.866,341.506 117.199,341.34 115.5,341.5 Z"/></g>
<g><path style="opacity:0.93" fill="#000000" d="M 321.5,193.5 C 366.168,193.333 410.835,193.5 455.5,194C 460.224,196.435 461.724,200.269 460,205.5C 458.833,206.667 457.667,207.833 456.5,209C 410.833,209.667 365.167,209.667 319.5,209C 313.731,202.8 314.398,197.633 321.5,193.5 Z"/></g>
<g><path style="opacity:0.932" fill="#000000" d="M 322.5,238.5 C 366.168,238.333 409.835,238.5 453.5,239C 458.294,239.463 460.628,242.13 460.5,247C 460.699,250.274 459.366,252.607 456.5,254C 410.833,254.667 365.167,254.667 319.5,254C 313.474,247.307 314.474,242.14 322.5,238.5 Z"/></g>
<g><path style="opacity:0.931" fill="#000000" d="M 319.5,284.5 C 365.168,284.333 410.835,284.5 456.5,285C 459.366,286.393 460.699,288.726 460.5,292C 460.666,296.348 458.666,299.015 454.5,300C 410.5,300.667 366.5,300.667 322.5,300C 316.659,298.824 314.493,295.324 316,289.5C 316.997,287.677 318.164,286.01 319.5,284.5 Z"/></g>
<g><path style="opacity:0.922" fill="#000000" d="M 320.5,329.5 C 344.169,329.333 367.836,329.5 391.5,330C 398.401,335.42 398.067,340.42 390.5,345C 367.5,345.667 344.5,345.667 321.5,345C 315.552,342.567 314.052,338.4 317,332.5C 318.145,331.364 319.312,330.364 320.5,329.5 Z"/></g>
</svg>
