<?xml version="1.0" encoding="UTF-8"?>
<!DOCTYPE svg PUBLIC "-//W3C//DTD SVG 1.1//EN" "http://www.w3.org/Graphics/SVG/1.1/DTD/svg11.dtd">
<svg xmlns="http://www.w3.org/2000/svg" version="1.1" width="512px" height="512px" style="shape-rendering:geometricPrecision; text-rendering:geometricPrecision; image-rendering:optimizeQuality; fill-rule:evenodd; clip-rule:evenodd" xmlns:xlink="http://www.w3.org/1999/xlink">
<g><path style="opacity:0.935" fill="#000000" d="M 511.5,429.5 C 511.5,440.5 511.5,451.5 511.5,462.5C 507.854,474.317 500.187,482.483 488.5,487C 463.208,488.619 437.875,488.952 412.5,488C 407.701,484.929 406.535,480.762 409,475.5C 409.903,474.299 411.069,473.465 412.5,473C 435.5,472.667 458.5,472.333 481.5,472C 487.841,470.325 492.341,466.492 495,460.5C 496.247,453.221 496.747,445.888 496.5,438.5C 434.167,438.5 371.833,438.5 309.5,438.5C 310.599,448.805 306.599,456.305 297.5,461C 283.566,462.141 269.566,462.641 255.5,462.5C 241.434,462.641 227.434,462.141 213.5,461C 204.401,456.305 200.401,448.805 201.5,438.5C 139.167,438.5 76.8333,438.5 14.5,438.5C 14.2534,445.888 14.7534,453.221 16,460.5C 18.6587,466.492 23.1587,470.325 29.5,472C 148.5,472.333 267.5,472.667 386.5,473C 391.535,476.013 392.702,480.18 390,485.5C 389.097,486.701 387.931,487.535 386.5,488C 266.833,488.667 147.167,488.667 27.5,488C 13.1997,484.863 3.86638,476.363 -0.5,462.5C -0.5,451.5 -0.5,440.5 -0.5,429.5C 1.37197,426.471 4.03864,424.305 7.5,423C 16.4938,422.5 25.4938,422.334 34.5,422.5C 34.162,420.146 33.662,417.813 33,415.5C 32.3333,325.167 32.3333,234.833 33,144.5C 36.2763,132.89 43.7763,125.723 55.5,123C 128.499,122.5 201.499,122.333 274.5,122.5C 274.666,117.489 274.499,112.489 274,107.5C 269.967,103.132 265.634,99.1321 261,95.5C 256.645,89.7006 255.645,83.3673 258,76.5C 261.344,68.5091 266.177,61.6758 272.5,56C 275.408,55.0069 278.408,54.5069 281.5,54.5C 288.682,55.5485 295.682,57.0485 302.5,59C 306.75,56.6258 310.916,54.1258 315,51.5C 316.413,45.0997 318.08,38.7664 320,32.5C 325.081,24.0721 332.581,20.7388 342.5,22.5C 353.047,20.723 360.881,24.3897 366,33.5C 367.692,39.4604 369.192,45.4604 370.5,51.5C 374.909,54.5665 379.576,57.2332 384.5,59.5C 392.744,55.4376 401.41,53.9376 410.5,55C 413.902,56.3999 416.736,58.5665 419,61.5C 421.667,66.1667 424.333,70.8333 427,75.5C 429.185,81.6452 428.852,87.6452 426,93.5C 421.634,98.2007 416.967,102.534 412,106.5C 411.501,111.823 411.334,117.156 411.5,122.5C 426.17,122.333 440.837,122.5 455.5,123C 467.667,125.833 475.167,133.333 478,145.5C 478.667,156.5 478.667,167.5 478,178.5C 473,185.167 468,185.167 463,178.5C 462.667,168.167 462.333,157.833 462,147.5C 460.5,143.333 457.667,140.5 453.5,139C 444.84,138.5 436.173,138.334 427.5,138.5C 428.676,143.047 428.676,147.547 427.5,152C 432.833,152.333 438.167,152.667 443.5,153C 445.667,153.833 447.167,155.333 448,157.5C 448.667,239.5 448.667,321.5 448,403.5C 447.535,404.931 446.701,406.097 445.5,407C 319.58,408.663 193.58,408.996 67.5,408C 65.3333,407.167 63.8333,405.667 63,403.5C 62.3333,385.167 62.3333,366.833 63,348.5C 65.4353,343.776 69.2686,342.276 74.5,344C 76.0488,345.214 77.2155,346.714 78,348.5C 78.4999,363.163 78.6666,377.83 78.5,392.5C 196.5,392.5 314.5,392.5 432.5,392.5C 432.5,317.833 432.5,243.167 432.5,168.5C 427.821,168.334 423.155,168.501 418.5,169C 414.815,173.675 409.982,175.842 404,175.5C 396.716,174.218 389.55,172.718 382.5,171C 378.332,173.25 374.332,175.75 370.5,178.5C 369.192,184.54 367.692,190.54 366,196.5C 361.03,205.483 353.364,209.15 343,207.5C 332.974,209.262 325.308,205.929 320,197.5C 318.08,191.234 316.413,184.9 315,178.5C 310.916,175.874 306.75,173.374 302.5,171C 295.628,172.783 288.628,174.283 281.5,175.5C 275.858,175.677 271.191,173.677 267.5,169.5C 261.528,168.336 255.528,168.17 249.5,169C 250.789,173.103 251.956,177.27 253,181.5C 257.418,184.293 261.918,186.959 266.5,189.5C 274.775,185.571 283.441,184.071 292.5,185C 295.249,186.123 297.749,187.623 300,189.5C 305.196,196.891 309.03,204.891 311.5,213.5C 310.822,216.544 309.989,219.544 309,222.5C 304.054,227.446 299.054,232.446 294,237.5C 293.333,242.5 293.333,247.5 294,252.5C 298.033,256.868 302.366,260.868 307,264.5C 311.053,270.373 312.053,276.706 310,283.5C 306.877,289.582 303.377,295.415 299.5,301C 295.755,304.206 291.422,305.706 286.5,305.5C 279.372,304.283 272.372,302.783 265.5,301C 261.25,303.374 257.084,305.874 253,308.5C 251.49,314.872 249.824,321.205 248,327.5C 242.579,335.651 234.913,338.985 225,337.5C 214.636,339.15 206.97,335.483 202,326.5C 200.308,320.54 198.808,314.54 197.5,308.5C 193.367,306.198 189.367,303.698 185.5,301C 178.45,302.718 171.284,304.218 164,305.5C 156.209,305.772 150.543,302.438 147,295.5C 144.667,291.167 142.333,286.833 140,282.5C 138.909,276.903 139.576,271.57 142,266.5C 146.366,261.799 151.033,257.466 156,253.5C 156.667,247.833 156.667,242.167 156,236.5C 149.624,231.791 144.291,226.125 140,219.5C 138.699,213.078 139.699,207.078 143,201.5C 145.872,194.243 150.705,188.743 157.5,185C 166.59,183.938 175.256,185.438 183.5,189.5C 188.731,187.094 193.565,184.094 198,180.5C 198.406,176.728 199.239,173.061 200.5,169.5C 159.839,168.5 119.172,168.167 78.5,168.5C 78.6667,219.501 78.5,270.501 78,321.5C 75.5647,326.224 71.7314,327.724 66.5,326C 64.9512,324.786 63.7845,323.286 63,321.5C 62.3333,266.833 62.3333,212.167 63,157.5C 63.4652,156.069 64.2986,154.903 65.5,154C 129.417,152.507 193.417,152.007 257.5,152.5C 256.024,147.858 256.358,143.358 258.5,139C 191.5,138.333 124.5,138.333 57.5,139C 53.3333,140.5 50.5,143.333 49,147.5C 48.3333,236.167 48.3333,324.833 49,413.5C 50.5,417.667 53.3333,420.5 57.5,422C 189.5,422.667 321.5,422.667 453.5,422C 457.667,420.5 460.5,417.667 462,413.5C 462.333,343.5 462.667,273.5 463,203.5C 465.911,199.723 469.744,198.556 474.5,200C 476.049,201.214 477.215,202.714 478,204.5C 478.667,274.833 478.667,345.167 478,415.5C 477.338,417.813 476.838,420.146 476.5,422.5C 485.506,422.334 494.506,422.5 503.5,423C 506.961,424.305 509.628,426.471 511.5,429.5 Z M 335.5,38.5 C 340.511,38.3341 345.511,38.5007 350.5,39C 352.456,45.7707 354.289,52.604 356,59.5C 359.109,63.4809 362.942,66.6475 367.5,69C 370.661,70.4131 373.661,72.0797 376.5,74C 378.909,74.9347 381.409,75.4347 384,75.5C 389.652,74.617 395.152,73.117 400.5,71C 402.167,70.3333 403.833,70.3333 405.5,71C 408.093,74.8521 410.426,78.8521 412.5,83C 408.679,88.1543 404.179,92.6543 399,96.5C 397.561,98.2746 396.561,100.275 396,102.5C 395.333,110.833 395.333,119.167 396,127.5C 397,129.5 398,131.5 399,133.5C 403.634,137.132 407.967,141.132 412,145.5C 410.866,150.11 408.866,154.443 406,158.5C 405.275,159.059 404.442,159.392 403.5,159.5C 398.668,158.5 394.001,157 389.5,155C 386.167,154.333 382.833,154.333 379.5,155C 373.04,158.064 366.707,161.397 360.5,165C 358.3,167.234 356.467,169.734 355,172.5C 354.004,178.822 352.504,184.989 350.5,191C 345.5,191.667 340.5,191.667 335.5,191C 333.21,183.898 331.044,176.732 329,169.5C 321.326,161.746 312.159,156.746 301.5,154.5C 294.884,155.649 288.384,157.315 282,159.5C 281.167,159.167 280.333,158.833 279.5,158.5C 277.167,154.5 274.833,150.5 272.5,146.5C 277.459,142.043 282.292,137.376 287,132.5C 291.289,121.329 291.622,109.996 288,98.5C 282.806,93.3063 277.64,88.1396 272.5,83C 274.959,79.25 277.292,75.4166 279.5,71.5C 280.333,71.1667 281.167,70.8333 282,70.5C 286.892,71.7971 291.725,73.2971 296.5,75C 299.5,75.6667 302.5,75.6667 305.5,75C 312.063,72.1033 318.397,68.77 324.5,65C 326.709,63.1266 328.542,60.96 330,58.5C 331.397,51.6654 333.23,44.9988 335.5,38.5 Z M 338.5,89.5 C 359.929,90.2577 369.595,101.258 367.5,122.5C 351.153,122.833 334.82,122.499 318.5,121.5C 316.037,105.088 322.703,94.4212 338.5,89.5 Z M 335.5,139.5 C 340.316,138.35 345.316,138.184 350.5,139C 345.548,140.827 340.548,140.994 335.5,139.5 Z M 217.5,168.5 C 222.511,168.334 227.511,168.501 232.5,169C 234.79,176.102 236.956,183.268 239,190.5C 246.654,198.244 255.82,203.244 266.5,205.5C 273.021,203.994 279.521,202.327 286,200.5C 286.833,200.833 287.667,201.167 288.5,201.5C 290.945,205.278 292.945,209.278 294.5,213.5C 289.821,218.679 284.988,223.679 280,228.5C 272.556,247.764 277.222,263.097 294,274.5C 294.552,277.419 293.885,280.086 292,282.5C 290.748,284.001 289.748,285.668 289,287.5C 288.196,288.804 287.029,289.471 285.5,289.5C 280.802,288.101 276.136,286.601 271.5,285C 268.167,284.333 264.833,284.333 261.5,285C 255.707,287.73 250.04,290.73 244.5,294C 241.96,296.205 239.793,298.705 238,301.5C 236.547,308.151 234.714,314.651 232.5,321C 227.5,321.667 222.5,321.667 217.5,321C 215.544,314.229 213.711,307.396 212,300.5C 206.324,294.177 199.491,289.344 191.5,286C 188.925,285.042 186.259,284.542 183.5,284.5C 176.464,286.13 169.464,287.63 162.5,289C 159.907,285.148 157.574,281.148 155.5,277C 159.321,271.846 163.821,267.346 169,263.5C 171.953,257.713 173.12,251.546 172.5,245C 173.12,238.454 171.953,232.287 169,226.5C 164.366,222.868 160.033,218.868 156,214.5C 157.161,209.673 159.328,205.173 162.5,201C 168.348,201.276 174.014,202.61 179.5,205C 182.5,205.667 185.5,205.667 188.5,205C 195.456,201.855 202.123,198.189 208.5,194C 209.787,192.59 210.954,191.09 212,189.5C 213.775,182.449 215.608,175.449 217.5,168.5 Z M 220.5,219.5 C 237.802,219.14 247.802,227.473 250.5,244.5C 248.918,259.915 240.418,268.582 225,270.5C 209.833,268.667 201.333,260.167 199.5,245C 200.903,231.774 207.903,223.274 220.5,219.5 Z M 217.5,438.5 C 242.833,438.5 268.167,438.5 293.5,438.5C 293.945,441.365 293.278,443.865 291.5,446C 267.5,446.667 243.5,446.667 219.5,446C 217.722,443.865 217.055,441.365 217.5,438.5 Z"/></g>
<g><path style="opacity:0.935" fill="#000000" d="M 337.5,73.5 C 365.544,73.38 381.211,87.2133 384.5,115C 381.923,140.41 367.923,154.243 342.5,156.5C 311.537,152.042 298.37,134.376 303,103.5C 308.826,86.8322 320.326,76.8322 337.5,73.5 Z M 338.5,89.5 C 322.703,94.4212 316.037,105.088 318.5,121.5C 334.82,122.499 351.153,122.833 367.5,122.5C 369.595,101.258 359.929,90.2577 338.5,89.5 Z M 335.5,139.5 C 340.548,140.994 345.548,140.827 350.5,139C 345.316,138.184 340.316,138.35 335.5,139.5 Z"/></g>
<g><path style="opacity:0.928" fill="#000000" d="M 219.5,203.5 C 244.504,202.734 260.004,214.401 266,238.5C 267.64,264.383 255.806,280.216 230.5,286C 204.714,286.864 189.214,274.698 184,249.5C 183.297,224.382 195.13,209.048 219.5,203.5 Z M 220.5,219.5 C 207.903,223.274 200.903,231.774 199.5,245C 201.333,260.167 209.833,268.667 225,270.5C 240.418,268.582 248.918,259.915 250.5,244.5C 247.802,227.473 237.802,219.14 220.5,219.5 Z"/></g>
</svg>
