<?xml version="1.0" encoding="UTF-8"?>
<!DOCTYPE svg PUBLIC "-//W3C//DTD SVG 1.1//EN" "http://www.w3.org/Graphics/SVG/1.1/DTD/svg11.dtd">
<svg xmlns="http://www.w3.org/2000/svg" version="1.1" width="512px" height="512px" style="shape-rendering:geometricPrecision; text-rendering:geometricPrecision; image-rendering:optimizeQuality; fill-rule:evenodd; clip-rule:evenodd" xmlns:xlink="http://www.w3.org/1999/xlink">
<g><path style="opacity:0.928" fill="#000000" d="M 106.5,-0.5 C 116.833,-0.5 127.167,-0.5 137.5,-0.5C 180.819,7.30472 212.319,30.9714 232,70.5C 249.642,111.543 246.476,150.877 222.5,188.5C 223.236,190.541 224.069,192.541 225,194.5C 269.801,126.333 332.968,88.1663 414.5,80C 441.846,77.5729 468.18,81.5729 493.5,92C 496.219,93.5967 498.386,95.7634 500,98.5C 506.461,113.993 510.294,129.993 511.5,146.5C 511.5,157.5 511.5,168.5 511.5,179.5C 507.279,232.352 487.613,278.519 452.5,318C 443.312,320.481 439.478,316.981 441,307.5C 480.733,261.301 498.733,207.634 495,146.5C 493.73,133.088 490.73,120.088 486,107.5C 480.388,103.846 474.222,101.346 467.5,100C 416.259,90.1513 367.925,98.1513 322.5,124C 285.095,146.071 254.928,175.571 232,212.5C 233.129,217.246 234.296,222.079 235.5,227C 233.309,236.572 227.642,239.405 218.5,235.5C 200.431,266.308 185.597,298.641 174,332.5C 173.365,334.635 173.699,336.635 175,338.5C 182.348,346.015 189.848,353.348 197.5,360.5C 222.811,332.352 250.477,306.852 280.5,284C 287.332,279.416 294.332,275.083 301.5,271C 307.078,268.304 312.745,267.97 318.5,270C 324.055,275.424 324.889,281.59 321,288.5C 317.586,294.997 313.919,301.33 310,307.5C 286.702,339.138 260.202,367.971 230.5,394C 238.714,402.716 247.38,410.882 256.5,418.5C 317.056,398.402 371.723,368.235 420.5,328C 430.037,326.532 433.537,330.365 431,339.5C 420.556,349.448 409.39,358.448 397.5,366.5C 396.725,395.553 389.559,422.886 376,448.5C 352.697,483.059 320.197,498.226 278.5,494C 274.934,491.202 272.934,487.535 272.5,483C 277.054,474.055 281.221,464.888 285,455.5C 286.507,445.399 285.174,435.732 281,426.5C 273.147,430.062 264.98,432.729 256.5,434.5C 251.022,434.009 246.188,432.009 242,428.5C 239.791,442.81 234.291,455.643 225.5,467C 221.289,468.534 216.956,468.867 212.5,468C 208.701,465.203 205.201,462.036 202,458.5C 192.073,479.759 176.24,494.925 154.5,504C 146.277,507.3 137.943,509.8 129.5,511.5C 119.5,511.5 109.5,511.5 99.5,511.5C 89.8074,511.729 83.9741,507.063 82,497.5C 76.5204,459.936 87.3537,428.102 114.5,402C 120.533,397.651 126.867,393.818 133.5,390.5C 117.514,376.262 119.514,365.095 139.5,357C 147.006,353.998 154.673,351.498 162.5,349.5C 157.941,343.555 156.441,336.888 158,329.5C 159.871,323.386 162.038,317.386 164.5,311.5C 147.34,304.539 131.673,307.039 117.5,319C 104.275,322.722 97.6084,317.722 97.5,304C 97.984,281.549 104.651,261.216 117.5,243C 50.1729,235.834 10.8395,199.001 -0.5,132.5C -0.5,124.167 -0.5,115.833 -0.5,107.5C 2.6609,82.5243 12.3276,60.3576 28.5,41C 38.9066,37.4287 43.0733,40.9287 41,51.5C 14.099,85.1332 8.43232,122.133 24,162.5C 43.6707,202.945 76.1707,224.279 121.5,226.5C 143.709,225.708 164.042,219.208 182.5,207C 184,206.833 185.5,206.667 187,206.5C 196.716,209.294 206.216,212.461 215.5,216C 212.278,208.336 209.445,200.503 207,192.5C 206.333,189.167 206.333,185.833 207,182.5C 235.341,138.928 234.008,96.2614 203,54.5C 171.195,18.5616 132.362,7.39498 86.5,21C 78.4377,23.8647 70.7711,27.5314 63.5,32C 55.3333,33.1667 51.8333,29.6667 53,21.5C 54.1667,19 56,17.1667 58.5,16C 73.6286,7.56945 89.6286,2.06945 106.5,-0.5 Z M 93.5,55.5 C 112.503,55.3334 131.503,55.5001 150.5,56C 152.667,56.8333 154.167,58.3333 155,60.5C 155.498,63.8168 155.665,67.1501 155.5,70.5C 132.833,70.5 110.167,70.5 87.5,70.5C 86.0807,63.9623 88.0807,58.9623 93.5,55.5 Z M 59.5,86.5 C 100.501,86.3333 141.501,86.5 182.5,87C 183.416,87.3742 184.25,87.8742 185,88.5C 185.667,96.5 185.667,104.5 185,112.5C 183.594,117.573 180.428,121.073 175.5,123C 169.92,124.517 164.253,124.851 158.5,124C 155.643,116.474 150.643,110.807 143.5,107C 129.889,105.407 116.223,105.074 102.5,106C 93.2592,108.907 86.9259,114.907 83.5,124C 76.1286,125.31 69.1286,124.31 62.5,121C 59.7692,118.374 57.9358,115.207 57,111.5C 56.3333,103.833 56.3333,96.1667 57,88.5C 57.9947,87.9341 58.828,87.2674 59.5,86.5 Z M 105.5,121.5 C 115.839,121.334 126.172,121.5 136.5,122C 142.089,124.451 143.922,128.617 142,134.5C 140.833,137 139,138.833 136.5,140C 126.167,140.667 115.833,140.667 105.5,140C 99.5333,136.608 98.0333,131.774 101,125.5C 102.397,123.93 103.897,122.596 105.5,121.5 Z M 56.5,136.5 C 65.7819,140.077 75.4486,141.411 85.5,140.5C 88.3868,148.547 94.0534,153.714 102.5,156C 114.833,156.667 127.167,156.667 139.5,156C 147.598,153.573 153.598,148.573 157.5,141C 163.167,140.667 168.833,140.333 174.5,140C 178.252,139.538 181.752,138.372 185,136.5C 185.667,148.833 185.667,161.167 185,173.5C 184.25,174.126 183.416,174.626 182.5,175C 141.5,175.667 100.5,175.667 59.5,175C 58.5838,174.626 57.7504,174.126 57,173.5C 56.5001,161.171 56.3335,148.838 56.5,136.5 Z M 369.5,157.5 C 399.022,154.502 420.188,166.169 433,192.5C 441.913,221.092 434.413,244.258 410.5,262C 378.427,277.855 351.927,271.355 331,242.5C 319.988,220.375 321.321,199.042 335,178.5C 344.157,167.511 355.657,160.511 369.5,157.5 Z M 185.5,223.5 C 191.581,224.305 197.248,226.305 202.5,229.5C 190.943,250.616 180.443,272.282 171,294.5C 170.439,295.022 169.772,295.355 169,295.5C 149.645,288.721 131.311,290.721 114,301.5C 114.895,277.801 123.728,257.635 140.5,241C 156.81,238.181 171.81,232.348 185.5,223.5 Z M 301.5,290.5 C 274.28,329.561 241.946,364.061 204.5,394C 200.049,396.641 195.549,399.141 191,401.5C 190.333,400.5 190.333,399.5 191,398.5C 197.84,386.66 205.84,375.66 215,365.5C 229.862,350.304 245.029,335.471 260.5,321C 270.5,313 280.5,305 290.5,297C 294.071,294.579 297.738,292.413 301.5,290.5 Z M 171.5,364.5 C 173.857,364.337 176.19,364.503 178.5,365C 181.5,368 184.5,371 187.5,374C 179.268,383.299 174.435,394.132 173,406.5C 162.5,396 152,385.5 141.5,375C 150.862,369.381 160.862,365.881 171.5,364.5 Z M 378.5,378.5 C 378.876,407.214 369.376,432.88 350,455.5C 333.816,470.726 314.649,478.392 292.5,478.5C 300.873,465.33 303.706,450.997 301,435.5C 300.037,430.475 298.537,425.642 296.5,421C 325.214,409.145 352.548,394.979 378.5,378.5 Z M 145.5,403.5 C 160.081,416.578 174.248,430.245 188,444.5C 187.773,450.188 186.106,455.521 183,460.5C 165.827,483.673 142.661,495.673 113.5,496.5C 108.153,495.832 102.82,495.166 97.5,494.5C 93.2257,462.819 102.559,435.986 125.5,414C 131.818,409.676 138.484,406.176 145.5,403.5 Z M 216.5,404.5 C 221.153,407.153 224.82,410.82 227.5,415.5C 226.628,427.996 223.128,439.662 217,450.5C 206.5,440 196,429.5 185.5,419C 197.187,416.82 207.521,411.987 216.5,404.5 Z"/></g>
<g><path style="opacity:0.938" fill="#000000" d="M 90.5,39.5 C 112.566,39.0325 134.566,39.5325 156.5,41C 169.016,46.8635 174.016,56.6969 171.5,70.5C 177.565,70.2614 183.565,70.7614 189.5,72C 195.088,74.5864 198.921,78.7531 201,84.5C 201.978,116.561 201.644,148.561 200,180.5C 196.714,186.788 191.547,190.288 184.5,191C 142.167,191.667 99.8333,191.667 57.5,191C 50.0546,190.219 44.8879,186.386 42,179.5C 40.356,148.228 40.0227,116.894 41,85.5C 42.6748,79.1587 46.5082,74.6587 52.5,72C 58.7688,70.7427 65.1021,70.2427 71.5,70.5C 70.0119,55.1082 76.3453,44.7749 90.5,39.5 Z M 93.5,55.5 C 88.0807,58.9623 86.0807,63.9623 87.5,70.5C 110.167,70.5 132.833,70.5 155.5,70.5C 155.665,67.1501 155.498,63.8168 155,60.5C 154.167,58.3333 152.667,56.8333 150.5,56C 131.503,55.5001 112.503,55.3334 93.5,55.5 Z M 59.5,86.5 C 58.828,87.2674 57.9947,87.9341 57,88.5C 56.3333,96.1667 56.3333,103.833 57,111.5C 57.9358,115.207 59.7692,118.374 62.5,121C 69.1286,124.31 76.1286,125.31 83.5,124C 86.9259,114.907 93.2592,108.907 102.5,106C 116.223,105.074 129.889,105.407 143.5,107C 150.643,110.807 155.643,116.474 158.5,124C 164.253,124.851 169.92,124.517 175.5,123C 180.428,121.073 183.594,117.573 185,112.5C 185.667,104.5 185.667,96.5 185,88.5C 184.25,87.8742 183.416,87.3742 182.5,87C 141.501,86.5 100.501,86.3333 59.5,86.5 Z M 105.5,121.5 C 103.897,122.596 102.397,123.93 101,125.5C 98.0333,131.774 99.5333,136.608 105.5,140C 115.833,140.667 126.167,140.667 136.5,140C 139,138.833 140.833,137 142,134.5C 143.922,128.617 142.089,124.451 136.5,122C 126.172,121.5 115.839,121.334 105.5,121.5 Z M 56.5,136.5 C 56.3335,148.838 56.5001,161.171 57,173.5C 57.7504,174.126 58.5838,174.626 59.5,175C 100.5,175.667 141.5,175.667 182.5,175C 183.416,174.626 184.25,174.126 185,173.5C 185.667,161.167 185.667,148.833 185,136.5C 181.752,138.372 178.252,139.538 174.5,140C 168.833,140.333 163.167,140.667 157.5,141C 153.598,148.573 147.598,153.573 139.5,156C 127.167,156.667 114.833,156.667 102.5,156C 94.0534,153.714 88.3868,148.547 85.5,140.5C 75.4486,141.411 65.7819,140.077 56.5,136.5 Z"/></g>
<g><path style="opacity:0.925" fill="#000000" d="M 374.5,140.5 C 413.3,140.482 438.8,158.815 451,195.5C 456.852,225.277 448.685,250.444 426.5,271C 396.391,291.16 366.058,291.493 335.5,272C 314.015,253.906 304.848,230.739 308,202.5C 315.921,166.408 338.088,145.741 374.5,140.5 Z M 369.5,157.5 C 355.657,160.511 344.157,167.511 335,178.5C 321.321,199.042 319.988,220.375 331,242.5C 351.927,271.355 378.427,277.855 410.5,262C 434.413,244.258 441.913,221.092 433,192.5C 420.188,166.169 399.022,154.502 369.5,157.5 Z"/></g>
</svg>
