<svg id="Layer_3" height="512" viewBox="0 0 64 64" width="512" xmlns="http://www.w3.org/2000/svg" data-name="Layer 3"><path d="m62 33h-13v-18a1 1 0 0 0 -.293-.707l-5.707-5.707v-6.586a1 1 0 0 0 -1-1h-40a1 1 0 0 0 -1 1v56a1 1 0 0 0 1 1h5v3a1 1 0 0 0 1 1h54a1 1 0 0 0 1-1v-28a1 1 0 0 0 -1-1zm-22-24.586 5.586 5.586h-5.586zm-33-2.414v51h-4v-54h38v3.586l-1.293-1.293a1 1 0 0 0 -.707-.293h-31a1 1 0 0 0 -1 1zm2 1h29v8a1 1 0 0 0 1 1h8v17h-2v-3a1 1 0 0 0 -1-1h-32a1 1 0 0 0 -1 1v27a1 1 0 0 0 1 1h29v3h-32zm32 27v22h-28v-25h30v2h-1a1 1 0 0 0 -1 1zm20 27h-18v-26h18z"/><path d="m46 47h12a1 1 0 0 0 1-1v-8a1 1 0 0 0 -1-1h-12a1 1 0 0 0 -1 1v8a1 1 0 0 0 1 1zm1-8h10v6h-10z"/><path d="m45 49h2v2h-2z"/><path d="m49 49h2v2h-2z"/><path d="m53 49h2v2h-2z"/><path d="m45 53h2v2h-2z"/><path d="m49 53h2v2h-2z"/><path d="m53 53h2v2h-2z"/><path d="m45 57h2v2h-2z"/><path d="m49 57h2v2h-2z"/><path d="m53 57h2v2h-2z"/><path d="m57 49h2v6h-2z"/><path d="m57 57h2v2h-2z"/><path d="m28 27a9 9 0 1 0 -9-9 9.011 9.011 0 0 0 9 9zm0-16a7 7 0 1 1 -7 7 7.008 7.008 0 0 1 7-7z"/><path d="m28 21a1 1 0 0 1 -1-1h-2a3 3 0 0 0 2 2.816v1.184h2v-1.184a2.993 2.993 0 0 0 -1-5.816 1 1 0 1 1 1-1h2a3 3 0 0 0 -2-2.816v-1.184h-2v1.184a2.993 2.993 0 0 0 1 5.816 1 1 0 0 1 0 2z"/><path d="m18 42a1 1 0 0 1 -1-1h-2a3 3 0 0 0 2 2.816v1.184h2v-1.184a2.993 2.993 0 0 0 -1-5.816 1 1 0 1 1 1-1h2a3 3 0 0 0 -2-2.816v-1.184h-2v1.184a2.993 2.993 0 0 0 1 5.816 1 1 0 0 1 0 2z"/><path d="m23 43h16v2h-16z"/><path d="m23 39h16v2h-16z"/><path d="m23 35h16v2h-16z"/><path d="m15 47h24v2h-24z"/><path d="m15 51h24v2h-24z"/></svg>